<?xml version="1.0" standalone="no"?>
<!DOCTYPE svg PUBLIC "-//W3C//DTD SVG 20010904//EN"
 "http://www.w3.org/TR/2001/REC-SVG-20010904/DTD/svg10.dtd">
<svg version="1.0" xmlns="http://www.w3.org/2000/svg"
 width="300.000000pt" height="300.000000pt" viewBox="0 0 300.000000 300.000000"
 preserveAspectRatio="xMidYMid meet">
<metadata>
Created by potrace 1.14, written by Peter Selinger 2001-2017
</metadata>
<g transform="translate(0.000000,300.000000) scale(0.100000,-0.100000)"
fill="#000000" stroke="none">
<path d="M568 2095 c-54 -15 -108 -46 -124 -72 -16 -25 -28 -82 -25 -118 2
-35 27 -162 43 -220 6 -22 12 -47 13 -55 2 -8 6 -31 9 -50 22 -108 13 -189
-39 -370 -59 -206 -44 -265 77 -306 44 -16 85 -19 243 -19 197 0 264 5 415 31
19 4 46 8 60 9 14 2 41 6 60 10 19 4 44 9 55 10 11 2 21 4 23 5 3 3 13 6 57
14 22 4 65 15 95 23 30 9 60 17 67 19 6 1 27 7 45 13 18 6 35 11 38 10 13 -1
224 91 283 125 68 38 151 110 180 157 20 33 19 180 -1 187 -7 2 -12 10 -12 17
0 26 -125 142 -225 209 -54 36 -105 66 -111 66 -7 0 -14 3 -16 8 -4 10 -195
102 -211 102 -7 0 -17 4 -22 9 -14 13 -219 87 -311 111 -153 42 -217 56 -289
65 -22 3 -51 8 -65 11 -54 12 -266 12 -312 -1z"/>
</g>
</svg>
